<svg version="1.1" id="Layer_1" xmlns="http://www.w3.org/2000/svg"
	xmlns:xlink="http://www.w3.org/1999/xlink" x="0px" y="0px"
	width="100%" viewBox="0 0 320 192" enable-background="new 0 0 320 192" xml:space="preserve">
<path fill="#8C1515" opacity="1.000000" stroke="none" 
	d="
M118.955627,31.380070 
	C137.736755,30.677830 156.192032,29.786308 174.670151,30.249624 
	C182.992844,30.458307 191.319763,30.668764 199.643036,30.614077 
	C204.055649,30.585081 205.688049,31.876276 204.546906,36.566845 
	C203.639587,40.296303 202.575790,43.915405 201.212326,47.490372 
	C199.990891,50.692970 201.408936,52.397076 204.512863,50.978565 
	C210.185196,48.386292 213.982178,50.710106 218.404373,54.172611 
	C230.873642,63.935860 245.707336,68.432312 260.952332,71.646187 
	C273.147766,74.217194 285.436737,76.193024 297.920959,76.735641 
	C300.818024,76.861565 302.800873,77.941185 303.557678,81.239723 
	C305.523010,89.805634 305.678986,98.335861 303.962280,106.919334 
	C303.300812,110.226738 301.213776,111.444344 297.842712,111.393951 
	C287.791687,111.243736 278.178772,108.439301 268.398926,106.711472 
	C247.646729,103.045143 226.800018,99.889053 206.197784,95.385612 
	C202.533264,94.584572 202.488403,94.789780 201.054260,98.162178 
	C204.367050,98.646866 207.575821,99.473259 210.796143,99.521072 
	C220.754654,99.668938 230.556824,101.177193 240.222870,103.216583 
	C251.642975,105.626053 262.463287,109.946388 272.742828,115.553818 
	C280.705261,119.897278 286.074493,126.333420 289.169830,134.857864 
	C293.507355,146.803299 295.421906,159.268661 297.233154,171.739105 
	C298.235138,178.637619 296.848969,180.042343 289.490845,180.261871 
	C273.682770,180.733521 257.870880,181.175751 242.057480,181.348572 
	C210.750198,181.690735 179.434906,182.311829 148.134338,181.915649 
	C125.319389,181.626877 102.499039,181.741165 79.689751,181.207993 
	C62.892315,180.815338 46.106922,179.927750 29.311655,179.405685 
	C25.712202,179.293808 24.576281,177.594696 24.928102,174.366882 
	C26.424770,160.635620 29.179972,147.179947 33.513062,134.042175 
	C38.277290,119.597214 50.287621,113.624947 63.069424,108.642654 
	C77.122025,103.165009 91.959091,101.356056 106.810318,99.531181 
	C111.377815,98.969933 116.370720,99.643135 120.421104,97.039040 
	C120.401039,94.936996 119.341446,94.522392 118.102150,94.451752 
	C115.940910,94.328560 113.720963,93.956711 111.618927,94.285545 
	C99.885475,96.121063 94.077286,89.185669 89.686600,79.890396 
	C88.707199,77.816963 88.195023,75.645462 88.884209,73.602921 
	C91.075684,67.107941 94.638245,61.246941 97.963646,55.293873 
	C98.902748,53.612698 100.794373,53.773361 102.464119,53.771679 
	C107.295128,53.766811 112.126549,53.821644 116.957077,53.775894 
	C123.132156,53.717419 123.897110,52.480873 121.725418,46.490368 
	C119.990295,41.704105 117.715431,37.018211 118.955627,31.380070 
M276.872437,176.208466 
	C280.699829,176.034988 284.534271,175.634415 288.352600,175.752777 
	C292.068329,175.867966 293.081970,174.139786 292.612671,170.867294 
	C290.818481,158.356140 288.704285,145.932526 284.303802,133.989899 
	C282.656311,129.518616 280.628235,127.091309 275.574036,129.653091 
	C273.688507,130.608780 271.453827,130.947952 269.338409,131.366608 
	C244.465164,136.289337 219.244492,138.178802 193.988373,139.003464 
	C162.196899,140.041519 130.426086,139.405716 98.681702,136.551300 
	C80.938568,134.955856 63.343342,132.790146 46.026016,128.746399 
	C42.217884,127.857178 40.505539,128.554138 39.173672,131.917419 
	C34.177368,144.534286 31.427153,157.664276 29.871275,171.098618 
	C29.500046,174.304031 31.204645,174.636566 33.698238,174.719910 
	C61.149986,175.637421 88.593323,177.018341 116.052017,177.460114 
	C147.033722,177.958557 178.029190,177.540085 209.017914,177.683090 
	C231.340256,177.786087 253.635239,176.847382 276.872437,176.208466 
M221.202957,61.433277 
	C219.181747,59.969051 217.145279,58.525379 215.142365,57.036549 
	C210.140839,53.318790 207.911575,53.347614 202.184647,57.775993 
	C210.086624,67.916611 209.186325,78.830490 203.185547,89.436974 
	C205.304688,91.102821 207.099350,91.361382 208.896149,91.671295 
	C221.648010,93.870750 234.407288,96.030090 247.142242,98.324081 
	C263.139435,101.205711 278.991486,104.882904 295.151154,106.888809 
	C297.964630,107.238045 299.911682,106.762657 300.338043,103.878014 
	C301.291138,97.429733 301.207550,90.961723 300.037720,84.525513 
	C299.662781,82.462646 298.656525,81.462929 296.386749,81.266426 
	C291.098969,80.808670 285.840576,80.015739 280.568115,79.376472 
	C259.982544,76.880569 239.900787,72.699806 221.202957,61.433277 
M130.656494,34.330425 
	C123.108978,34.358433 121.713753,36.026989 124.607544,41.353123 
	C126.051262,44.010319 128.427902,43.612892 130.701309,43.614902 
	C150.983215,43.632828 171.265152,43.622375 191.547089,43.614349 
	C198.808151,43.611477 199.758789,42.601845 199.817444,34.332237 
	C177.083099,34.332237 154.348145,34.332237 130.656494,34.330425 
M97.899246,84.694359 
	C99.656357,88.786118 102.770607,90.267334 107.118073,89.711067 
	C108.919426,89.480583 110.775154,89.688950 112.605904,89.671722 
	C118.737686,89.613998 119.346001,88.947433 117.110962,83.433380 
	C114.175209,76.190613 114.256439,69.220398 118.002998,62.317669 
	C118.533546,61.340176 119.376434,60.381374 118.734314,58.803848 
	C114.465561,57.866215 109.996391,58.493660 105.577126,58.440006 
	C100.039803,58.372784 91.251404,73.172386 93.747978,78.186081 
	C94.117401,78.927971 94.601318,79.614250 95.049706,80.315094 
	C95.856453,81.576057 96.676414,82.828568 97.899246,84.694359 
z"/>
</svg>